<svg width="223" height="57" viewBox="0 0 223 57" fill="none" xmlns="http://www.w3.org/2000/svg">
<path d="M23.9143 11.0429C20.5649 11.0429 17.4836 13.0928 16.2108 16.2007L0 56.2065H11.7897L14.9381 48.0069H32.5556L35.771 56.2065H47.8286L31.6178 16.2007C30.345 13.0928 27.2636 11.0429 23.9143 11.0429ZM18.2204 39.08L23.8473 24.3341L29.4072 39.08H18.2204Z" fill="white"/>
<path d="M57.5417 29.8886H47.6276C45.417 29.8886 43.6084 28.1033 43.6084 25.9211C43.6084 23.739 45.417 21.9536 47.6276 21.9536H67.8576V56.2065H57.5417V29.8886Z" fill="white"/>
<path d="M131.294 29.8886H121.38C119.17 29.8886 117.361 28.1033 117.361 25.9211C117.361 23.739 119.17 21.9536 121.38 21.9536H141.61V56.2065H131.294V29.8886Z" fill="white"/>
<path d="M151.591 50.7842L169.343 29.8886H156.347C154.137 29.8886 152.328 28.1033 152.328 25.9211C152.328 23.739 154.137 21.9536 156.347 21.9536H183.678V27.3759L165.792 48.2054H180.061C182.271 48.2054 184.08 49.9907 184.08 52.1729C184.08 54.355 182.271 56.1404 180.061 56.1404H151.524V50.7842H151.591Z" fill="white"/>
<path d="M188.032 39.0139C188.032 27.7726 196.807 21.0278 206.118 21.0278C216.836 21.0278 222.463 28.6984 222.463 37.493C222.463 39.1462 222.463 40.667 222.262 42.0557H195.668V35.2448H215.028L213.42 37.1624C213.42 31.674 211.008 28.7645 206.453 28.7645C201.362 28.7645 198.013 32.1369 198.013 39.0139C198.013 46.1554 201.965 49.2633 208.664 49.2633C210.807 49.2633 212.951 48.8666 214.961 48.1392C216.702 47.5441 218.578 48.2053 219.449 49.7923C220.521 51.6438 219.717 54.0243 217.707 54.884C214.492 56.2726 210.606 57.0661 207.257 57.0661C196.405 57 188.032 50.4536 188.032 39.0139Z" fill="white"/>
<path d="M115.284 10.9107H82.9966C80.7191 10.9107 78.8435 9.05915 78.8435 6.81089C78.8435 4.56263 80.7191 2.71112 82.9966 2.71112H115.284C117.562 2.71112 119.437 4.56263 119.437 6.81089C119.437 9.05915 117.562 10.9107 115.284 10.9107Z" fill="white"/>
<path d="M62.2307 13.4896C66.0043 13.4896 69.0634 10.4698 69.0634 6.74478C69.0634 3.01974 66.0043 0 62.2307 0C58.4572 0 55.3981 3.01974 55.3981 6.74478C55.3981 10.4698 58.4572 13.4896 62.2307 13.4896Z" fill="white"/>
<path d="M135.983 13.4896C139.757 13.4896 142.816 10.4698 142.816 6.74478C142.816 3.01974 139.757 0 135.983 0C132.21 0 129.151 3.01974 129.151 6.74478C129.151 10.4698 132.21 13.4896 135.983 13.4896Z" fill="white"/>
<path d="M100.212 21.094C95.5232 21.094 91.9729 23.1439 89.0924 25.6566C88.9585 22.9455 86.6809 20.8295 83.9345 20.8295C81.121 20.8295 78.7765 23.0777 78.7765 25.9211V28.0371V56.2065H89.0924V33.7239C91.437 31.2111 93.3796 29.7564 96.126 29.7564C99.8773 29.7564 101.217 31.8063 101.217 36.3689V56.2065H111.533V35.0464C111.533 26.384 108.117 21.094 100.212 21.094Z" fill="white"/>
</svg>
